<svg width="67" height="54" viewBox="0 0 67 54" fill="none" xmlns="http://www.w3.org/2000/svg">
<g filter="url(#filter0_d_161_1237)">
<path d="M4.375 33.6875V12.625C4.375 10.7917 4.95833 8.875 6.125 6.875C8.5 2.875 12.0833 0.895833 16.875 0.9375V4.125C14.125 4.16667 11.8542 5.16667 10.0625 7.125C8.47917 8.875 7.6875 10.7083 7.6875 12.625V33.6875C7.6875 34.8542 8.0625 36.125 8.8125 37.5C10.6042 40.5833 13.2917 42.125 16.875 42.125V45.3125C12.75 45.2708 9.47917 43.75 7.0625 40.75C5.27083 38.4583 4.375 36.1042 4.375 33.6875ZM19.75 45.3125V42.125L21.4375 41.875C22.5625 41.75 23.8125 41.1875 25.1875 40.1875C26.6042 39.1875 27.5833 37.8125 28.125 36.0625C28.2917 35.4792 28.4167 34.8125 28.5 34.0625C28.5833 33.7292 28.625 33.3542 28.625 32.9375L31.625 33.625C31.625 36.5417 30.5833 39.1458 28.5 41.4375C26.0833 44.0208 23.1667 45.3125 19.75 45.3125ZM19.75 4.125V0.9375C22.5833 0.9375 25.2083 2.04167 27.625 4.25C30.2917 6.70833 31.625 9.54167 31.625 12.75L28.5 13.5625V12.5C28.4583 12 28.3333 11.4167 28.125 10.75C26.9583 7.58333 24.8333 5.5 21.75 4.5C20.4167 4.25 19.75 4.125 19.75 4.125ZM36.5625 45V1.25H39.875V45H36.5625ZM42.75 25.6875V22.5H51.1875C52.3125 22.5 53.3333 22.3958 54.25 22.1875C57.7917 21.3125 59.5625 18.3333 59.5625 13.25C59.5625 11.9583 59.4375 10.7917 59.1875 9.75C58.3125 6.125 55.625 4.3125 51.125 4.3125H42.75V1.25H52.375C53 1.29167 53.625 1.35417 54.25 1.4375C60.0417 2.27083 62.9375 6.25 62.9375 13.375C62.9375 15.0833 62.7708 16.6458 62.4375 18.0625C61.3125 22.9792 57.9583 25.5208 52.375 25.6875H42.75Z" fill="#2B2823"/>
</g>
<defs>
<filter id="filter0_d_161_1237" x="0.375" y="0.875" width="66.5625" height="52.4375" filterUnits="userSpaceOnUse" color-interpolation-filters="sRGB">
<feFlood flood-opacity="0" result="BackgroundImageFix"/>
<feColorMatrix in="SourceAlpha" type="matrix" values="0 0 0 0 0 0 0 0 0 0 0 0 0 0 0 0 0 0 127 0" result="hardAlpha"/>
<feOffset dy="4"/>
<feGaussianBlur stdDeviation="2"/>
<feComposite in2="hardAlpha" operator="out"/>
<feColorMatrix type="matrix" values="0 0 0 0 0 0 0 0 0 0 0 0 0 0 0 0 0 0 0.25 0"/>
<feBlend mode="normal" in2="BackgroundImageFix" result="effect1_dropShadow_161_1237"/>
<feBlend mode="normal" in="SourceGraphic" in2="effect1_dropShadow_161_1237" result="shape"/>
</filter>
</defs>
</svg>
