<svg xmlns="http://www.w3.org/2000/svg" xmlns:xlink="http://www.w3.org/1999/xlink" width="500" zoomAndPan="magnify" viewBox="0 0 375 374.999991" height="500" preserveAspectRatio="xMidYMid meet" version="1.2"><defs><clipPath id="18f9fa3bf6"><path d="M 139.492188 169.199219 L 164.242188 169.199219 L 164.242188 205.949219 L 139.492188 205.949219 Z M 139.492188 169.199219 "/></clipPath><clipPath id="37dd3a9558"><path d="M 56 195 L 168 195 L 168 307 L 56 307 Z M 56 195 "/></clipPath><clipPath id="48fdf8649c"><path d="M 307.628906 187.496094 L 176.105469 319.015625 L 44.585938 187.496094 L 176.105469 55.972656 Z M 307.628906 187.496094 "/></clipPath><clipPath id="3875729d97"><path d="M 307.628906 187.496094 L 176.105469 319.015625 L 44.585938 187.496094 L 176.105469 55.972656 Z M 307.628906 187.496094 "/></clipPath><clipPath id="da12ed3230"><path d="M 184 68 L 296 68 L 296 180 L 184 180 Z M 184 68 "/></clipPath><clipPath id="b39eaf79ba"><path d="M 307.628906 187.496094 L 176.105469 319.015625 L 44.585938 187.496094 L 176.105469 55.972656 Z M 307.628906 187.496094 "/></clipPath><clipPath id="b1847f0c21"><path d="M 307.628906 187.496094 L 176.105469 319.015625 L 44.585938 187.496094 L 176.105469 55.972656 Z M 307.628906 187.496094 "/></clipPath><clipPath id="623269ef3b"><path d="M 184 195 L 296 195 L 296 307 L 184 307 Z M 184 195 "/></clipPath><clipPath id="b5031b1e0a"><path d="M 307.628906 187.496094 L 176.105469 319.015625 L 44.585938 187.496094 L 176.105469 55.972656 Z M 307.628906 187.496094 "/></clipPath><clipPath id="f6b52f143e"><path d="M 307.628906 187.496094 L 176.105469 319.015625 L 44.585938 187.496094 L 176.105469 55.972656 Z M 307.628906 187.496094 "/></clipPath><clipPath id="44715c5cbe"><path d="M 56 68 L 168 68 L 168 180 L 56 180 Z M 56 68 "/></clipPath><clipPath id="c4ebab33f4"><path d="M 307.628906 187.496094 L 176.105469 319.015625 L 44.585938 187.496094 L 176.105469 55.972656 Z M 307.628906 187.496094 "/></clipPath><clipPath id="a619455787"><path d="M 307.628906 187.496094 L 176.105469 319.015625 L 44.585938 187.496094 L 176.105469 55.972656 Z M 307.628906 187.496094 "/></clipPath><clipPath id="6b001be22e"><path d="M 164 303 L 189 303 L 189 320 L 164 320 Z M 164 303 "/></clipPath><clipPath id="d59b2d9594"><path d="M 307.628906 187.496094 L 176.105469 319.015625 L 44.585938 187.496094 L 176.105469 55.972656 Z M 307.628906 187.496094 "/></clipPath><clipPath id="a5808310b1"><path d="M 307.628906 187.496094 L 176.105469 319.015625 L 44.585938 187.496094 L 176.105469 55.972656 Z M 307.628906 187.496094 "/></clipPath><clipPath id="b122ee29f8"><path d="M 291 175 L 308 175 L 308 200 L 291 200 Z M 291 175 "/></clipPath><clipPath id="b7ce82ba5a"><path d="M 307.628906 187.496094 L 176.105469 319.015625 L 44.585938 187.496094 L 176.105469 55.972656 Z M 307.628906 187.496094 "/></clipPath><clipPath id="6ab041d327"><path d="M 307.628906 187.496094 L 176.105469 319.015625 L 44.585938 187.496094 L 176.105469 55.972656 Z M 307.628906 187.496094 "/></clipPath><clipPath id="6a3629eca2"><path d="M 44 175 L 61 175 L 61 200 L 44 200 Z M 44 175 "/></clipPath><clipPath id="55cb4ebb9b"><path d="M 307.628906 187.496094 L 176.105469 319.015625 L 44.585938 187.496094 L 176.105469 55.972656 Z M 307.628906 187.496094 "/></clipPath><clipPath id="2aa7a983ad"><path d="M 307.628906 187.496094 L 176.105469 319.015625 L 44.585938 187.496094 L 176.105469 55.972656 Z M 307.628906 187.496094 "/></clipPath><clipPath id="124075cd3a"><path d="M 164 55 L 189 55 L 189 72 L 164 72 Z M 164 55 "/></clipPath><clipPath id="464c66b1de"><path d="M 307.628906 187.496094 L 176.105469 319.015625 L 44.585938 187.496094 L 176.105469 55.972656 Z M 307.628906 187.496094 "/></clipPath><clipPath id="5c3f295f58"><path d="M 307.628906 187.496094 L 176.105469 319.015625 L 44.585938 187.496094 L 176.105469 55.972656 Z M 307.628906 187.496094 "/></clipPath><clipPath id="7f698af5b2"><path d="M 79 195 L 192 195 L 192 307 L 79 307 Z M 79 195 "/></clipPath><clipPath id="67888b096b"><path d="M 330.835938 187.496094 L 199.3125 319.015625 L 67.792969 187.496094 L 199.3125 55.972656 Z M 330.835938 187.496094 "/></clipPath><clipPath id="3d00641bbe"><path d="M 330.835938 187.496094 L 199.3125 319.015625 L 67.792969 187.496094 L 199.3125 55.972656 Z M 330.835938 187.496094 "/></clipPath><clipPath id="4682e47557"><path d="M 207 68 L 319 68 L 319 180 L 207 180 Z M 207 68 "/></clipPath><clipPath id="cfd68b2b7e"><path d="M 330.835938 187.496094 L 199.3125 319.015625 L 67.792969 187.496094 L 199.3125 55.972656 Z M 330.835938 187.496094 "/></clipPath><clipPath id="f5322c916f"><path d="M 330.835938 187.496094 L 199.3125 319.015625 L 67.792969 187.496094 L 199.3125 55.972656 Z M 330.835938 187.496094 "/></clipPath><clipPath id="fdc0954f5a"><path d="M 207 195 L 319 195 L 319 307 L 207 307 Z M 207 195 "/></clipPath><clipPath id="2c77b4213e"><path d="M 330.835938 187.496094 L 199.3125 319.015625 L 67.792969 187.496094 L 199.3125 55.972656 Z M 330.835938 187.496094 "/></clipPath><clipPath id="0c299ff85a"><path d="M 330.835938 187.496094 L 199.3125 319.015625 L 67.792969 187.496094 L 199.3125 55.972656 Z M 330.835938 187.496094 "/></clipPath><clipPath id="a2df54751b"><path d="M 79 68 L 192 68 L 192 180 L 79 180 Z M 79 68 "/></clipPath><clipPath id="f736b2f32f"><path d="M 330.835938 187.496094 L 199.3125 319.015625 L 67.792969 187.496094 L 199.3125 55.972656 Z M 330.835938 187.496094 "/></clipPath><clipPath id="a906e024ff"><path d="M 330.835938 187.496094 L 199.3125 319.015625 L 67.792969 187.496094 L 199.3125 55.972656 Z M 330.835938 187.496094 "/></clipPath><clipPath id="a8f9b7cf23"><path d="M 187 303 L 212 303 L 212 320 L 187 320 Z M 187 303 "/></clipPath><clipPath id="d8616330ec"><path d="M 330.835938 187.496094 L 199.3125 319.015625 L 67.792969 187.496094 L 199.3125 55.972656 Z M 330.835938 187.496094 "/></clipPath><clipPath id="4cf81d71b3"><path d="M 330.835938 187.496094 L 199.3125 319.015625 L 67.792969 187.496094 L 199.3125 55.972656 Z M 330.835938 187.496094 "/></clipPath><clipPath id="ebdc179fc6"><path d="M 314 175 L 331 175 L 331 200 L 314 200 Z M 314 175 "/></clipPath><clipPath id="d51b02fb93"><path d="M 330.835938 187.496094 L 199.3125 319.015625 L 67.792969 187.496094 L 199.3125 55.972656 Z M 330.835938 187.496094 "/></clipPath><clipPath id="dbf928bb03"><path d="M 330.835938 187.496094 L 199.3125 319.015625 L 67.792969 187.496094 L 199.3125 55.972656 Z M 330.835938 187.496094 "/></clipPath><clipPath id="2c178c69c3"><path d="M 67 175 L 84 175 L 84 200 L 67 200 Z M 67 175 "/></clipPath><clipPath id="b78a3488b4"><path d="M 330.835938 187.496094 L 199.3125 319.015625 L 67.792969 187.496094 L 199.3125 55.972656 Z M 330.835938 187.496094 "/></clipPath><clipPath id="4a7f444fd4"><path d="M 330.835938 187.496094 L 199.3125 319.015625 L 67.792969 187.496094 L 199.3125 55.972656 Z M 330.835938 187.496094 "/></clipPath><clipPath id="ca4f64cbbb"><path d="M 187 55 L 212 55 L 212 72 L 187 72 Z M 187 55 "/></clipPath><clipPath id="d3b50ffbdf"><path d="M 330.835938 187.496094 L 199.3125 319.015625 L 67.792969 187.496094 L 199.3125 55.972656 Z M 330.835938 187.496094 "/></clipPath><clipPath id="1a31f60f1e"><path d="M 330.835938 187.496094 L 199.3125 319.015625 L 67.792969 187.496094 L 199.3125 55.972656 Z M 330.835938 187.496094 "/></clipPath><clipPath id="278dc3c0be"><path d="M 209.945312 169.199219 L 234.695312 169.199219 L 234.695312 205.949219 L 209.945312 205.949219 Z M 209.945312 169.199219 "/></clipPath><clipPath id="584e9c8f50"><path d="M 140 237 L 235 237 L 235 242.019531 L 140 242.019531 Z M 140 237 "/></clipPath><clipPath id="4b2b19fce4"><path d="M 182 133.269531 L 194 133.269531 L 194 149 L 182 149 Z M 182 133.269531 "/></clipPath><clipPath id="bb0ae36272"><path d="M 133.269531 149 L 183 149 L 183 212 L 133.269531 212 Z M 133.269531 149 "/></clipPath></defs><g id="4fe7be57cc"><rect x="0" width="375" y="0" height="374.999991" style="fill:#ffffff;fill-opacity:1;stroke:none;"/><rect x="0" width="375" y="0" height="374.999991" style="fill:#ffffff;fill-opacity:1;stroke:none;"/><g clip-rule="nonzero" clip-path="url(#18f9fa3bf6)"><path style=" stroke:none;fill-rule:nonzero;fill:#000000;fill-opacity:1;" d="M 164.242188 203.722656 C 164.242188 203.777344 164.234375 203.84375 164.230469 203.902344 C 164.214844 203.960938 164.203125 204.023438 164.179688 204.082031 C 164.152344 204.140625 164.136719 204.199219 164.097656 204.253906 C 163.964844 204.484375 163.742188 204.695312 163.457031 204.867188 C 163.164062 205.035156 162.8125 205.167969 162.421875 205.242188 C 162.324219 205.261719 162.226562 205.273438 162.125 205.289062 C 162.027344 205.300781 161.925781 205.308594 161.824219 205.3125 L 161.671875 205.320312 C 161.621094 205.320312 161.570312 205.320312 161.53125 205.320312 L 161.273438 205.320312 L 160.253906 205.3125 C 159.574219 205.3125 158.894531 205.308594 158.214844 205.300781 L 156.171875 205.28125 L 154.132812 205.257812 C 151.410156 205.21875 148.6875 205.167969 145.96875 205.085938 C 144.941406 205.113281 143.914062 205.132812 142.890625 205.148438 L 142.121094 205.160156 C 141.84375 205.164062 141.566406 205.140625 141.304688 205.089844 C 141.039062 205.035156 140.789062 204.957031 140.570312 204.855469 C 140.351562 204.75 140.160156 204.625 140.015625 204.480469 C 139.867188 204.339844 139.757812 204.179688 139.699219 204.015625 L 139.664062 203.890625 L 139.648438 203.765625 C 139.640625 203.683594 139.640625 203.609375 139.636719 203.535156 L 139.613281 202.621094 L 139.570312 200.789062 L 139.539062 198.960938 L 139.523438 197.132812 C 139.511719 195.914062 139.523438 194.695312 139.546875 193.476562 L 139.660156 189.820312 L 139.71875 187.988281 L 139.757812 186.160156 C 139.769531 184.941406 139.769531 183.722656 139.75 182.503906 L 139.734375 181.589844 L 139.664062 178.847656 C 139.628906 177.628906 139.585938 176.410156 139.558594 175.1875 C 139.53125 173.96875 139.515625 172.75 139.5 171.53125 L 139.496094 171.074219 L 139.492188 170.847656 C 139.496094 170.828125 139.492188 170.808594 139.496094 170.789062 L 139.5 170.71875 C 139.5 170.675781 139.503906 170.628906 139.519531 170.585938 C 139.589844 170.226562 139.890625 169.890625 140.335938 169.644531 C 140.558594 169.523438 140.816406 169.421875 141.097656 169.351562 C 141.375 169.28125 141.679688 169.242188 141.984375 169.230469 L 142.097656 169.226562 C 142.132812 169.226562 142.164062 169.226562 142.195312 169.226562 L 142.386719 169.226562 L 142.773438 169.222656 L 143.542969 169.222656 C 144.570312 169.214844 145.59375 169.214844 146.621094 169.214844 L 149.699219 169.214844 C 151.753906 169.222656 153.804688 169.226562 155.855469 169.238281 L 158.9375 169.257812 L 160.476562 169.269531 L 161.246094 169.277344 C 161.375 169.277344 161.492188 169.277344 161.636719 169.28125 C 161.710938 169.285156 161.785156 169.285156 161.855469 169.292969 L 162.074219 169.3125 C 162.652344 169.386719 163.175781 169.578125 163.539062 169.851562 C 163.898438 170.121094 164.011719 172.640625 164.011719 172.640625 C 163.996094 173.25 163.964844 173.859375 163.9375 174.46875 C 163.910156 175.078125 164.070312 179.527344 164.125 181.144531 C 164.125 181.144531 163.960938 189.226562 163.9375 190.84375 C 163.925781 191.652344 164.109375 197.308594 164.132812 198.117188 C 164.164062 198.925781 164.179688 199.734375 164.191406 200.542969 L 164.234375 202.964844 L 164.242188 203.574219 Z M 164.242188 203.722656 "/></g><path style=" stroke:none;fill-rule:nonzero;fill:#9e968c;fill-opacity:1;" d="M 160.695312 174.140625 C 160.726562 174.140625 160.761719 174.140625 160.792969 174.140625 C 160.824219 174.144531 160.855469 174.148438 160.886719 174.152344 C 160.917969 174.15625 160.949219 174.160156 160.980469 174.167969 C 161.101562 174.195312 161.214844 174.242188 161.304688 174.300781 C 161.398438 174.359375 161.46875 174.433594 161.507812 174.511719 C 161.519531 174.53125 161.523438 174.550781 161.53125 174.570312 C 161.539062 174.59375 161.542969 174.613281 161.546875 174.632812 L 161.546875 174.664062 C 161.550781 174.675781 161.550781 174.6875 161.550781 174.695312 L 161.546875 174.746094 L 161.546875 174.953125 C 161.542969 175.09375 161.542969 175.234375 161.539062 175.371094 L 161.515625 176.207031 C 161.496094 176.761719 161.449219 178.296875 161.457031 178.503906 L 161.464844 178.660156 C 161.464844 178.71875 161.453125 178.773438 161.425781 178.828125 C 161.398438 178.882812 161.355469 178.933594 161.300781 178.980469 C 161.246094 179.023438 161.175781 179.0625 161.101562 179.09375 C 161.023438 179.121094 160.941406 179.144531 160.851562 179.15625 L 160.785156 179.164062 L 160.71875 179.167969 C 160.675781 179.167969 160.636719 179.167969 160.59375 179.167969 L 160.105469 179.175781 L 159.132812 179.183594 L 158.15625 179.191406 L 157.179688 179.191406 C 156.527344 179.195312 155.875 179.191406 155.226562 179.1875 L 152.296875 179.152344 L 151.320312 179.144531 C 150.667969 179.144531 150.019531 179.144531 149.367188 179.148438 L 148.878906 179.148438 L 148.390625 179.152344 L 147.414062 179.164062 C 146.765625 179.171875 146.113281 179.179688 145.460938 179.1875 C 144.8125 179.191406 144.160156 179.195312 143.511719 179.195312 L 143.265625 179.199219 L 143.144531 179.199219 C 143.132812 179.199219 143.125 179.199219 143.113281 179.199219 L 143.078125 179.199219 C 143.054688 179.195312 143.027344 179.195312 143.003906 179.195312 C 142.8125 179.179688 142.632812 179.117188 142.503906 179.027344 C 142.4375 178.980469 142.382812 178.929688 142.347656 178.871094 C 142.308594 178.8125 142.285156 178.753906 142.28125 178.691406 L 142.28125 178.667969 C 142.277344 178.660156 142.28125 178.652344 142.28125 178.648438 L 142.277344 178.605469 L 142.277344 178.371094 C 142.273438 178.160156 142.273438 177.953125 142.273438 177.742188 L 142.273438 177.113281 C 142.277344 176.691406 142.277344 176.273438 142.285156 175.855469 L 142.296875 175.222656 L 142.300781 174.910156 L 142.304688 174.753906 C 142.308594 174.726562 142.304688 174.703125 142.308594 174.671875 C 142.308594 174.65625 142.3125 174.640625 142.3125 174.628906 L 142.324219 174.582031 C 142.363281 174.464844 142.46875 174.355469 142.613281 174.285156 C 142.757812 174.210938 142.945312 174.171875 143.125 174.175781 L 144.101562 174.1875 C 144.425781 174.191406 144.75 174.195312 145.078125 174.203125 C 145.402344 174.207031 145.726562 174.214844 146.054688 174.222656 C 146.917969 174.1875 147.78125 174.175781 148.640625 174.164062 L 149.289062 174.15625 L 149.9375 174.15625 C 150.367188 174.152344 150.800781 174.152344 151.230469 174.160156 C 152.09375 174.167969 152.957031 174.195312 153.820312 174.203125 C 154.25 174.203125 154.683594 174.203125 155.113281 174.199219 L 155.4375 174.199219 L 155.761719 174.191406 L 156.410156 174.183594 C 156.839844 174.175781 157.273438 174.167969 157.703125 174.160156 C 158.136719 174.15625 158.566406 174.152344 158.996094 174.148438 L 160.292969 174.140625 Z M 160.695312 174.140625 "/><path style=" stroke:none;fill-rule:nonzero;fill:#a6a6a6;fill-opacity:1;" d="M 144.875 186.386719 L 144.007812 186.386719 C 143.191406 186.386719 142.535156 185.726562 142.535156 184.914062 L 142.535156 184.046875 C 142.535156 183.234375 143.191406 182.574219 144.007812 182.574219 L 144.875 182.574219 C 145.6875 182.574219 146.347656 183.234375 146.347656 184.046875 L 146.347656 184.914062 C 146.347656 185.726562 145.6875 186.386719 144.875 186.386719 Z M 151.3125 184.914062 L 151.3125 184.046875 C 151.3125 183.234375 150.652344 182.574219 149.839844 182.574219 L 148.972656 182.574219 C 148.160156 182.574219 147.5 183.234375 147.5 184.046875 L 147.5 184.914062 C 147.5 185.726562 148.160156 186.386719 148.972656 186.386719 L 149.839844 186.386719 C 150.652344 186.386719 151.3125 185.726562 151.3125 184.914062 Z M 156.28125 184.914062 L 156.28125 184.046875 C 156.28125 183.234375 155.621094 182.574219 154.808594 182.574219 L 153.941406 182.574219 C 153.125 182.574219 152.46875 183.234375 152.46875 184.046875 L 152.46875 184.914062 C 152.46875 185.726562 153.125 186.386719 153.941406 186.386719 L 154.808594 186.386719 C 155.621094 186.386719 156.28125 185.726562 156.28125 184.914062 Z M 146.347656 189.882812 L 146.347656 189.015625 C 146.347656 188.199219 145.6875 187.542969 144.875 187.542969 L 144.007812 187.542969 C 143.191406 187.542969 142.535156 188.199219 142.535156 189.015625 L 142.535156 189.882812 C 142.535156 190.695312 143.191406 191.355469 144.007812 191.355469 L 144.875 191.355469 C 145.6875 191.355469 146.347656 190.695312 146.347656 189.882812 Z M 151.3125 189.882812 L 151.3125 189.015625 C 151.3125 188.199219 150.652344 187.542969 149.839844 187.542969 L 148.972656 187.542969 C 148.160156 187.542969 147.5 188.199219 147.5 189.015625 L 147.5 189.882812 C 147.5 190.695312 148.160156 191.355469 148.972656 191.355469 L 149.839844 191.355469 C 150.652344 191.355469 151.3125 190.695312 151.3125 189.882812 Z M 156.28125 189.882812 L 156.28125 189.015625 C 156.28125 188.199219 155.621094 187.542969 154.808594 187.542969 L 153.941406 187.542969 C 153.125 187.542969 152.46875 188.199219 152.46875 189.015625 L 152.46875 189.882812 C 152.46875 190.695312 153.125 191.355469 153.941406 191.355469 L 154.808594 191.355469 C 155.621094 191.355469 156.28125 190.695312 156.28125 189.882812 Z M 146.347656 194.847656 L 146.347656 193.980469 C 146.347656 193.167969 145.6875 192.507812 144.875 192.507812 L 144.007812 192.507812 C 143.191406 192.507812 142.535156 193.167969 142.535156 193.980469 L 142.535156 194.847656 C 142.535156 195.660156 143.191406 196.320312 144.007812 196.320312 L 144.875 196.320312 C 145.6875 196.320312 146.347656 195.660156 146.347656 194.847656 Z M 151.3125 194.847656 L 151.3125 193.980469 C 151.3125 193.167969 150.652344 192.507812 149.839844 192.507812 L 148.972656 192.507812 C 148.160156 192.507812 147.5 193.167969 147.5 193.980469 L 147.5 194.847656 C 147.5 195.660156 148.160156 196.320312 148.972656 196.320312 L 149.839844 196.320312 C 150.652344 196.320312 151.3125 195.660156 151.3125 194.847656 Z M 156.28125 194.847656 L 156.28125 193.980469 C 156.28125 193.167969 155.621094 192.507812 154.808594 192.507812 L 153.941406 192.507812 C 153.125 192.507812 152.46875 193.167969 152.46875 193.980469 L 152.46875 194.847656 C 152.46875 195.660156 153.125 196.320312 153.941406 196.320312 L 154.808594 196.320312 C 155.621094 196.320312 156.28125 195.660156 156.28125 194.847656 Z M 146.347656 199.316406 L 146.347656 198.453125 C 146.347656 197.636719 145.6875 196.976562 144.875 196.976562 L 144.007812 196.976562 C 143.191406 196.976562 142.535156 197.636719 142.535156 198.453125 L 142.535156 199.316406 C 142.535156 200.132812 143.191406 200.792969 144.007812 200.792969 L 144.875 200.792969 C 145.6875 200.792969 146.347656 200.132812 146.347656 199.316406 Z M 151.3125 199.316406 L 151.3125 198.453125 C 151.3125 197.636719 150.652344 196.976562 149.839844 196.976562 L 148.972656 196.976562 C 148.160156 196.976562 147.5 197.636719 147.5 198.453125 L 147.5 199.316406 C 147.5 200.132812 148.160156 200.792969 148.972656 200.792969 L 149.839844 200.792969 C 150.652344 200.792969 151.3125 200.132812 151.3125 199.316406 Z M 151.3125 199.316406 "/><path style=" stroke:none;fill-rule:nonzero;fill:#ffffff;fill-opacity:1;" d="M 159.773438 186.386719 L 158.90625 186.386719 C 158.09375 186.386719 157.433594 185.726562 157.433594 184.914062 L 157.433594 184.046875 C 157.433594 183.234375 158.09375 182.574219 158.90625 182.574219 L 159.773438 182.574219 C 160.585938 182.574219 161.246094 183.234375 161.246094 184.046875 L 161.246094 184.914062 C 161.246094 185.726562 160.585938 186.386719 159.773438 186.386719 Z M 161.246094 189.882812 L 161.246094 189.015625 C 161.246094 188.199219 160.585938 187.542969 159.773438 187.542969 L 158.90625 187.542969 C 158.09375 187.542969 157.433594 188.199219 157.433594 189.015625 L 157.433594 189.882812 C 157.433594 190.695312 158.09375 191.355469 158.90625 191.355469 L 159.773438 191.355469 C 160.585938 191.355469 161.246094 190.695312 161.246094 189.882812 Z M 161.246094 194.847656 L 161.246094 193.980469 C 161.246094 193.167969 160.585938 192.507812 159.773438 192.507812 L 158.90625 192.507812 C 158.09375 192.507812 157.433594 193.167969 157.433594 193.980469 L 157.433594 194.847656 C 157.433594 195.660156 158.09375 196.320312 158.90625 196.320312 L 159.773438 196.320312 C 160.585938 196.320312 161.246094 195.660156 161.246094 194.847656 Z M 156.28125 199.316406 L 156.28125 198.453125 C 156.28125 197.636719 155.621094 196.976562 154.808594 196.976562 L 153.941406 196.976562 C 153.125 196.976562 152.46875 197.636719 152.46875 198.453125 L 152.46875 199.316406 C 152.46875 200.132812 153.125 200.792969 153.941406 200.792969 L 154.808594 200.792969 C 155.621094 200.792969 156.28125 200.132812 156.28125 199.316406 Z M 161.246094 199.316406 L 161.246094 198.453125 C 161.246094 197.636719 160.585938 196.976562 159.773438 196.976562 L 158.90625 196.976562 C 158.09375 196.976562 157.433594 197.636719 157.433594 198.453125 L 157.433594 199.316406 C 157.433594 200.132812 158.09375 200.792969 158.90625 200.792969 L 159.773438 200.792969 C 160.585938 200.792969 161.246094 200.132812 161.246094 199.316406 Z M 144.003906 202.027344 C 142.597656 201.777344 140.402344 201.441406 140.949219 202.929688 C 141.273438 203.820312 143.851562 203.769531 145 203.753906 C 146.011719 203.738281 147.535156 203.652344 147.625 203.101562 C 147.722656 202.488281 145.363281 202.269531 144.003906 202.027344 Z M 140.9375 171.355469 C 140.441406 172.117188 140.578125 175.5625 141.207031 175.417969 C 142.058594 175.222656 142.160156 173.015625 142.816406 172.25 C 143.613281 171.320312 146.910156 171.703125 147.25 171.101562 C 147.785156 170.152344 141.863281 169.945312 140.9375 171.355469 Z M 148.996094 171.683594 C 149.359375 171.703125 149.898438 171.417969 149.890625 171.070312 C 149.878906 170.742188 149.609375 170.359375 149.035156 170.339844 C 148.597656 170.324219 148.160156 170.699219 148.160156 170.972656 C 148.164062 171.34375 148.539062 171.675781 148.996094 171.683594 Z M 148.996094 171.683594 "/><path style=" stroke:none;fill-rule:nonzero;fill:#59524b;fill-opacity:1;" d="M 144.203125 185.378906 C 144.183594 184.773438 144.160156 184.171875 144.140625 183.570312 C 144.128906 183.28125 144.578125 183.28125 144.585938 183.570312 C 144.609375 184.171875 144.628906 184.773438 144.648438 185.378906 C 144.660156 185.667969 144.214844 185.664062 144.203125 185.378906 Z M 150.292969 184.902344 C 150.125 184.839844 149.953125 184.804688 149.777344 184.792969 C 150.039062 184.457031 150.246094 184.039062 150.046875 183.695312 C 149.910156 183.460938 149.621094 183.398438 149.378906 183.480469 C 149.09375 183.574219 148.945312 183.847656 148.835938 184.105469 C 148.722656 184.367188 149.105469 184.59375 149.21875 184.332031 C 149.277344 184.199219 149.335938 184.03125 149.453125 183.945312 C 149.652344 183.800781 149.691406 183.992188 149.632812 184.148438 C 149.527344 184.433594 149.296875 184.6875 149.078125 184.894531 C 148.910156 185.054688 149.085938 185.316406 149.296875 185.269531 C 149.597656 185.199219 149.886719 185.226562 150.175781 185.335938 C 150.445312 185.433594 150.5625 185.003906 150.292969 184.902344 Z M 154.074219 184.222656 C 154.136719 184.144531 154.464844 183.878906 154.570312 184.011719 C 154.648438 184.109375 154.410156 184.296875 154.355469 184.347656 C 154.222656 184.46875 154.320312 184.753906 154.515625 184.730469 C 154.628906 184.714844 154.808594 184.667969 154.855469 184.808594 C 154.886719 184.914062 154.804688 185.011719 154.71875 185.0625 C 154.496094 185.195312 154.199219 185.105469 153.96875 185.042969 C 153.691406 184.972656 153.570312 185.402344 153.851562 185.476562 C 154.328125 185.597656 154.988281 185.667969 155.246094 185.132812 C 155.339844 184.933594 155.324219 184.683594 155.199219 184.503906 C 155.132812 184.40625 155.046875 184.34375 154.945312 184.308594 C 155.058594 184.089844 155.074219 183.839844 154.84375 183.65625 C 154.46875 183.351562 153.929688 183.683594 153.691406 183.996094 C 153.515625 184.222656 153.902344 184.445312 154.074219 184.222656 Z M 145.101562 189.726562 C 145.011719 189.726562 144.921875 189.726562 144.832031 189.726562 C 144.839844 189.902344 144.851562 190.082031 144.863281 190.257812 C 144.878906 190.546875 144.433594 190.542969 144.414062 190.257812 C 144.40625 190.082031 144.394531 189.902344 144.382812 189.722656 C 144.144531 189.722656 143.90625 189.722656 143.664062 189.71875 C 143.496094 189.71875 143.386719 189.53125 143.472656 189.382812 C 143.636719 189.101562 143.828125 188.835938 144.046875 188.589844 C 144.195312 188.429688 144.386719 188.21875 144.617188 188.378906 C 144.84375 188.535156 144.785156 188.964844 144.800781 189.195312 C 144.800781 189.222656 144.800781 189.25 144.804688 189.277344 C 144.902344 189.277344 145 189.277344 145.101562 189.28125 C 145.386719 189.28125 145.386719 189.726562 145.101562 189.726562 Z M 144.070312 189.277344 C 144.167969 189.277344 144.261719 189.277344 144.355469 189.277344 C 144.351562 189.1875 144.347656 189.09375 144.339844 189.003906 C 144.339844 188.976562 144.335938 188.953125 144.335938 188.925781 C 144.277344 188.996094 144.222656 189.070312 144.183594 189.121094 C 144.144531 189.171875 144.105469 189.222656 144.070312 189.277344 Z M 149.832031 189.222656 C 149.742188 189.207031 149.652344 189.195312 149.5625 189.199219 C 149.523438 189.199219 149.410156 189.230469 149.339844 189.242188 C 149.390625 189.199219 149.359375 189.011719 149.359375 188.964844 C 149.359375 188.929688 149.355469 188.894531 149.355469 188.859375 C 149.550781 188.875 149.742188 188.882812 149.941406 188.875 C 150.226562 188.863281 150.226562 188.414062 149.941406 188.425781 C 149.6875 188.4375 149.4375 188.429688 149.191406 188.394531 C 149.050781 188.371094 148.90625 188.449219 148.90625 188.609375 C 148.910156 188.773438 148.910156 188.9375 148.910156 189.097656 C 148.914062 189.230469 148.894531 189.398438 148.957031 189.519531 C 149.074219 189.734375 149.316406 189.675781 149.507812 189.652344 C 149.742188 189.625 150.183594 189.789062 149.871094 190.050781 C 149.617188 190.261719 149.246094 190.019531 149.027344 189.875 C 148.785156 189.714844 148.5625 190.101562 148.800781 190.261719 C 149.105469 190.464844 149.484375 190.652344 149.863281 190.546875 C 150.164062 190.464844 150.429688 190.179688 150.429688 189.859375 C 150.429688 189.519531 150.140625 189.289062 149.832031 189.222656 Z M 153.546875 189.707031 C 153.5 189.136719 153.8125 188.578125 154.304688 188.292969 C 154.554688 188.148438 154.777344 188.535156 154.53125 188.679688 C 154.1875 188.878906 153.863281 189.425781 154.003906 189.839844 C 154.167969 189.429688 154.667969 189.179688 155.097656 189.433594 C 155.660156 189.765625 155.164062 190.488281 154.707031 190.621094 C 154.089844 190.796875 153.597656 190.289062 153.546875 189.707031 Z M 154.398438 190.195312 C 154.585938 190.226562 154.796875 190.152344 154.867188 189.957031 C 154.941406 189.746094 154.671875 189.753906 154.546875 189.832031 C 154.417969 189.910156 154.386719 190.054688 154.398438 190.195312 Z M 144.78125 193.488281 C 144.484375 193.472656 144.183594 193.460938 143.882812 193.449219 C 143.597656 193.433594 143.597656 193.882812 143.882812 193.894531 C 144.058594 193.902344 144.230469 193.910156 144.40625 193.917969 C 144.464844 193.921875 144.621094 193.902344 144.738281 193.90625 C 144.707031 194.085938 144.640625 194.277344 144.601562 194.4375 C 144.550781 194.679688 144.496094 194.917969 144.445312 195.15625 C 144.382812 195.4375 144.8125 195.558594 144.875 195.277344 C 144.9375 194.988281 145.003906 194.699219 145.066406 194.414062 C 145.097656 194.269531 145.128906 194.125 145.160156 193.980469 C 145.183594 193.886719 145.222656 193.777344 145.191406 193.679688 C 145.136719 193.492188 144.941406 193.496094 144.78125 193.488281 Z M 148.632812 194.511719 C 148.691406 194.355469 148.796875 194.234375 148.929688 194.148438 C 148.777344 194 148.675781 193.804688 148.691406 193.589844 C 148.734375 192.964844 149.503906 192.890625 149.871094 193.277344 C 149.882812 193.292969 149.894531 193.304688 149.902344 193.324219 C 150.09375 193.546875 150.085938 193.878906 149.929688 194.125 C 150.011719 194.164062 150.085938 194.222656 150.140625 194.304688 C 150.484375 194.816406 149.964844 195.332031 149.464844 195.398438 C 148.945312 195.464844 148.414062 195.070312 148.632812 194.511719 Z M 149.503906 194.417969 C 149.277344 194.476562 148.957031 194.539062 149.03125 194.804688 C 149.113281 195.101562 149.707031 194.953125 149.785156 194.71875 C 149.835938 194.570312 149.683594 194.484375 149.503906 194.417969 Z M 149.445312 193.945312 C 149.453125 193.953125 149.464844 193.957031 149.472656 193.957031 C 149.507812 193.941406 149.539062 193.914062 149.5625 193.878906 C 149.597656 193.820312 149.640625 193.671875 149.578125 193.613281 C 149.570312 193.609375 149.5625 193.601562 149.554688 193.59375 C 149.453125 193.488281 149.214844 193.382812 149.144531 193.589844 C 149.089844 193.765625 149.3125 193.890625 149.445312 193.945312 Z M 154.632812 194.378906 C 154.277344 194.484375 153.890625 194.445312 153.675781 194.082031 C 153.390625 193.601562 153.855469 193.105469 154.347656 193.113281 C 154.851562 193.125 155.230469 193.554688 155.179688 194.054688 C 155.125 194.578125 154.738281 195.183594 154.253906 195.410156 C 153.996094 195.535156 153.769531 195.148438 154.03125 195.023438 C 154.214844 194.9375 154.480469 194.667969 154.632812 194.378906 Z M 154.734375 193.855469 C 154.710938 193.769531 154.664062 193.695312 154.578125 193.640625 C 154.421875 193.53125 153.902344 193.546875 154.058594 193.855469 C 154.1875 194.105469 154.527344 193.972656 154.734375 193.855469 Z M 150.289062 198.871094 C 150.296875 199.328125 150.089844 199.972656 149.527344 199.960938 C 148.964844 199.949219 148.597656 199.277344 148.597656 198.773438 C 148.601562 198.277344 148.921875 197.734375 149.460938 197.71875 C 149.492188 197.71875 149.519531 197.726562 149.542969 197.734375 C 150.089844 197.804688 150.277344 198.367188 150.289062 198.871094 Z M 149.464844 198.171875 C 149.457031 198.171875 149.453125 198.171875 149.445312 198.167969 C 149.175781 198.191406 149.050781 198.539062 149.046875 198.773438 C 149.042969 199.015625 149.226562 199.511719 149.527344 199.515625 C 150.007812 199.515625 149.953125 198.191406 149.464844 198.171875 Z M 155.195312 198.1875 C 154.691406 198.210938 154.1875 198.226562 153.683594 198.226562 C 153.394531 198.230469 153.394531 198.675781 153.683594 198.675781 C 154.1875 198.671875 154.691406 198.65625 155.195312 198.632812 C 155.484375 198.621094 155.484375 198.171875 155.195312 198.1875 Z M 155.195312 199.089844 C 154.695312 199.046875 154.199219 199.070312 153.703125 199.148438 C 153.417969 199.191406 153.539062 199.621094 153.820312 199.578125 C 154.277344 199.507812 154.738281 199.496094 155.195312 199.535156 C 155.484375 199.5625 155.480469 199.113281 155.195312 199.089844 Z M 158.5625 184.671875 C 158.75 184.671875 158.9375 184.671875 159.125 184.671875 C 159.144531 184.867188 159.167969 185.058594 159.191406 185.25 C 159.222656 185.535156 159.671875 185.535156 159.636719 185.25 C 159.617188 185.058594 159.59375 184.867188 159.570312 184.675781 C 159.824219 184.679688 160.078125 184.683594 160.332031 184.6875 C 160.617188 184.695312 160.617188 184.25 160.332031 184.242188 C 160.058594 184.234375 159.789062 184.230469 159.519531 184.226562 C 159.496094 184.007812 159.46875 183.789062 159.445312 183.570312 C 159.410156 183.289062 158.964844 183.285156 158.996094 183.570312 C 159.023438 183.789062 159.046875 184.007812 159.074219 184.226562 C 158.902344 184.226562 158.734375 184.226562 158.5625 184.226562 C 158.273438 184.226562 158.273438 184.675781 158.5625 184.671875 Z M 160.203125 189.640625 C 160.492188 189.632812 160.492188 189.1875 160.203125 189.195312 C 159.703125 189.207031 159.203125 189.183594 158.707031 189.105469 C 158.425781 189.0625 158.304688 189.496094 158.589844 189.539062 C 159.125 189.621094 159.660156 189.65625 160.203125 189.640625 Z M 159.054688 195.421875 C 159.199219 195.199219 159.34375 194.976562 159.492188 194.757812 C 159.703125 194.886719 159.910156 195.015625 160.117188 195.148438 C 160.363281 195.300781 160.585938 194.914062 160.34375 194.761719 C 160.144531 194.636719 159.945312 194.515625 159.746094 194.390625 C 159.910156 194.160156 160.074219 193.929688 160.242188 193.707031 C 160.414062 193.476562 160.027344 193.253906 159.855469 193.480469 C 159.691406 193.703125 159.527344 193.925781 159.371094 194.15625 C 159.171875 194.03125 158.972656 193.90625 158.777344 193.785156 C 158.53125 193.632812 158.304688 194.019531 158.550781 194.171875 C 158.738281 194.289062 158.925781 194.40625 159.113281 194.523438 C 158.964844 194.746094 158.816406 194.96875 158.667969 195.199219 C 158.515625 195.441406 158.902344 195.667969 159.054688 195.421875 Z M 160.289062 198.585938 C 159.710938 198.566406 159.136719 198.53125 158.5625 198.472656 C 158.277344 198.445312 158.28125 198.894531 158.5625 198.921875 C 159.136719 198.976562 159.710938 199.015625 160.289062 199.035156 C 160.574219 199.042969 160.574219 198.597656 160.289062 198.585938 Z M 157.882812 176.515625 C 157.929688 175.894531 158.332031 175.203125 159.019531 175.199219 C 159.042969 175.199219 159.066406 175.203125 159.085938 175.207031 C 159.871094 175.265625 160.109375 176.125 160.109375 176.800781 C 160.109375 177.414062 159.8125 178.292969 159.046875 178.210938 C 158.296875 178.132812 157.835938 177.195312 157.882812 176.515625 Z M 159.03125 177.757812 C 159.550781 177.886719 159.667969 177.109375 159.660156 176.757812 C 159.652344 176.347656 159.558594 175.664062 159.027344 175.652344 C 159.011719 175.652344 159 175.648438 158.988281 175.648438 C 158.566406 175.675781 158.351562 176.183594 158.328125 176.554688 C 158.304688 176.988281 158.566406 177.640625 159.03125 177.757812 Z M 159.03125 177.757812 "/><g clip-rule="nonzero" clip-path="url(#37dd3a9558)"><g clip-rule="nonzero" clip-path="url(#48fdf8649c)"><g clip-rule="nonzero" clip-path="url(#3875729d97)"><path style=" stroke:none;fill-rule:nonzero;fill:#000000;fill-opacity:1;" d="M 167.984375 303.035156 L 164.054688 306.964844 L 56.636719 199.546875 L 60.566406 195.617188 Z M 167.984375 303.035156 "/></g></g></g><g clip-rule="nonzero" clip-path="url(#da12ed3230)"><g clip-rule="nonzero" clip-path="url(#b39eaf79ba)"><g clip-rule="nonzero" clip-path="url(#b1847f0c21)"><path style=" stroke:none;fill-rule:nonzero;fill:#000000;fill-opacity:1;" d="M 295.574219 175.441406 L 291.644531 179.371094 L 184.226562 71.953125 L 188.15625 68.023438 Z M 295.574219 175.441406 "/></g></g></g><g clip-rule="nonzero" clip-path="url(#623269ef3b)"><g clip-rule="nonzero" clip-path="url(#b5031b1e0a)"><g clip-rule="nonzero" clip-path="url(#f6b52f143e)"><path style=" stroke:none;fill-rule:nonzero;fill:#000000;fill-opacity:1;" d="M 295.574219 199.546875 L 188.15625 306.964844 L 184.226562 303.035156 L 291.644531 195.617188 Z M 295.574219 199.546875 "/></g></g></g><g clip-rule="nonzero" clip-path="url(#44715c5cbe)"><g clip-rule="nonzero" clip-path="url(#c4ebab33f4)"><g clip-rule="nonzero" clip-path="url(#a619455787)"><path style=" stroke:none;fill-rule:nonzero;fill:#000000;fill-opacity:1;" d="M 167.984375 71.953125 L 60.566406 179.371094 L 56.636719 175.441406 L 164.054688 68.023438 Z M 167.984375 71.953125 "/></g></g></g><g clip-rule="nonzero" clip-path="url(#6b001be22e)"><g clip-rule="nonzero" clip-path="url(#d59b2d9594)"><g clip-rule="nonzero" clip-path="url(#a5808310b1)"><path style=" stroke:none;fill-rule:nonzero;fill:#000000;fill-opacity:1;" d="M 176.105469 311.15625 L 167.984375 303.035156 L 164.054688 306.964844 L 176.105469 319.015625 L 188.15625 306.964844 L 184.226562 303.035156 Z M 176.105469 311.15625 "/></g></g></g><g clip-rule="nonzero" clip-path="url(#b122ee29f8)"><g clip-rule="nonzero" clip-path="url(#b7ce82ba5a)"><g clip-rule="nonzero" clip-path="url(#6ab041d327)"><path style=" stroke:none;fill-rule:nonzero;fill:#000000;fill-opacity:1;" d="M 299.769531 187.496094 L 291.644531 195.617188 L 295.574219 199.546875 L 307.628906 187.496094 L 295.574219 175.441406 L 291.644531 179.371094 Z M 299.769531 187.496094 "/></g></g></g><g clip-rule="nonzero" clip-path="url(#6a3629eca2)"><g clip-rule="nonzero" clip-path="url(#55cb4ebb9b)"><g clip-rule="nonzero" clip-path="url(#2aa7a983ad)"><path style=" stroke:none;fill-rule:nonzero;fill:#000000;fill-opacity:1;" d="M 52.445312 187.496094 L 60.566406 179.371094 L 56.636719 175.441406 L 44.585938 187.496094 L 56.636719 199.546875 L 60.566406 195.617188 Z M 52.445312 187.496094 "/></g></g></g><g clip-rule="nonzero" clip-path="url(#124075cd3a)"><g clip-rule="nonzero" clip-path="url(#464c66b1de)"><g clip-rule="nonzero" clip-path="url(#5c3f295f58)"><path style=" stroke:none;fill-rule:nonzero;fill:#000000;fill-opacity:1;" d="M 176.105469 63.832031 L 184.226562 71.953125 L 188.15625 68.023438 L 176.105469 55.972656 L 164.054688 68.023438 L 167.984375 71.953125 Z M 176.105469 63.832031 "/></g></g></g><g clip-rule="nonzero" clip-path="url(#7f698af5b2)"><g clip-rule="nonzero" clip-path="url(#67888b096b)"><g clip-rule="nonzero" clip-path="url(#3d00641bbe)"><path style=" stroke:none;fill-rule:nonzero;fill:#a6a6a6;fill-opacity:1;" d="M 191.191406 303.035156 L 187.261719 306.964844 L 79.84375 199.546875 L 83.773438 195.617188 Z M 191.191406 303.035156 "/></g></g></g><g clip-rule="nonzero" clip-path="url(#4682e47557)"><g clip-rule="nonzero" clip-path="url(#cfd68b2b7e)"><g clip-rule="nonzero" clip-path="url(#f5322c916f)"><path style=" stroke:none;fill-rule:nonzero;fill:#a6a6a6;fill-opacity:1;" d="M 318.785156 175.441406 L 314.855469 179.371094 L 207.4375 71.953125 L 211.367188 68.023438 Z M 318.785156 175.441406 "/></g></g></g><g clip-rule="nonzero" clip-path="url(#fdc0954f5a)"><g clip-rule="nonzero" clip-path="url(#2c77b4213e)"><g clip-rule="nonzero" clip-path="url(#0c299ff85a)"><path style=" stroke:none;fill-rule:nonzero;fill:#a6a6a6;fill-opacity:1;" d="M 318.785156 199.546875 L 211.367188 306.964844 L 207.4375 303.035156 L 314.855469 195.617188 Z M 318.785156 199.546875 "/></g></g></g><g clip-rule="nonzero" clip-path="url(#a2df54751b)"><g clip-rule="nonzero" clip-path="url(#f736b2f32f)"><g clip-rule="nonzero" clip-path="url(#a906e024ff)"><path style=" stroke:none;fill-rule:nonzero;fill:#a6a6a6;fill-opacity:1;" d="M 191.191406 71.953125 L 83.773438 179.371094 L 79.84375 175.441406 L 187.261719 68.023438 Z M 191.191406 71.953125 "/></g></g></g><g clip-rule="nonzero" clip-path="url(#a8f9b7cf23)"><g clip-rule="nonzero" clip-path="url(#d8616330ec)"><g clip-rule="nonzero" clip-path="url(#4cf81d71b3)"><path style=" stroke:none;fill-rule:nonzero;fill:#a6a6a6;fill-opacity:1;" d="M 199.3125 311.15625 L 191.191406 303.035156 L 187.261719 306.964844 L 199.3125 319.015625 L 211.367188 306.964844 L 207.4375 303.035156 Z M 199.3125 311.15625 "/></g></g></g><g clip-rule="nonzero" clip-path="url(#ebdc179fc6)"><g clip-rule="nonzero" clip-path="url(#d51b02fb93)"><g clip-rule="nonzero" clip-path="url(#dbf928bb03)"><path style=" stroke:none;fill-rule:nonzero;fill:#a6a6a6;fill-opacity:1;" d="M 322.976562 187.496094 L 314.855469 195.617188 L 318.785156 199.546875 L 330.835938 187.496094 L 318.785156 175.441406 L 314.855469 179.371094 Z M 322.976562 187.496094 "/></g></g></g><g clip-rule="nonzero" clip-path="url(#2c178c69c3)"><g clip-rule="nonzero" clip-path="url(#b78a3488b4)"><g clip-rule="nonzero" clip-path="url(#4a7f444fd4)"><path style=" stroke:none;fill-rule:nonzero;fill:#a6a6a6;fill-opacity:1;" d="M 75.652344 187.496094 L 83.773438 179.371094 L 79.84375 175.441406 L 67.792969 187.496094 L 79.84375 199.546875 L 83.773438 195.617188 Z M 75.652344 187.496094 "/></g></g></g><g clip-rule="nonzero" clip-path="url(#ca4f64cbbb)"><g clip-rule="nonzero" clip-path="url(#d3b50ffbdf)"><g clip-rule="nonzero" clip-path="url(#1a31f60f1e)"><path style=" stroke:none;fill-rule:nonzero;fill:#a6a6a6;fill-opacity:1;" d="M 199.3125 63.832031 L 207.4375 71.953125 L 211.367188 68.023438 L 199.3125 55.972656 L 187.261719 68.023438 L 191.191406 71.953125 Z M 199.3125 63.832031 "/></g></g></g><g clip-rule="nonzero" clip-path="url(#278dc3c0be)"><path style=" stroke:none;fill-rule:nonzero;fill:#000000;fill-opacity:1;" d="M 234.691406 203.722656 C 234.691406 203.777344 234.683594 203.84375 234.679688 203.902344 C 234.664062 203.960938 234.652344 204.023438 234.632812 204.082031 C 234.605469 204.140625 234.585938 204.199219 234.546875 204.253906 C 234.414062 204.484375 234.195312 204.695312 233.90625 204.867188 C 233.617188 205.035156 233.261719 205.167969 232.871094 205.242188 C 232.777344 205.261719 232.675781 205.273438 232.578125 205.289062 C 232.476562 205.300781 232.375 205.308594 232.277344 205.3125 L 232.125 205.320312 C 232.074219 205.320312 232.019531 205.320312 231.980469 205.320312 L 231.726562 205.320312 L 230.707031 205.3125 C 230.023438 205.3125 229.34375 205.308594 228.664062 205.300781 L 226.625 205.28125 L 224.582031 205.257812 C 221.863281 205.21875 219.140625 205.167969 216.417969 205.085938 C 215.394531 205.113281 214.367188 205.132812 213.339844 205.148438 L 212.570312 205.160156 C 212.296875 205.164062 212.019531 205.140625 211.753906 205.089844 C 211.488281 205.035156 211.238281 204.957031 211.019531 204.855469 C 210.800781 204.75 210.613281 204.625 210.464844 204.480469 C 210.316406 204.339844 210.210938 204.179688 210.148438 204.015625 L 210.113281 203.890625 L 210.097656 203.765625 C 210.09375 203.683594 210.09375 203.609375 210.089844 203.535156 L 210.0625 202.621094 L 210.019531 200.789062 L 209.992188 198.960938 L 209.976562 197.132812 C 209.964844 195.914062 209.972656 194.695312 209.996094 193.476562 L 210.109375 189.820312 L 210.171875 187.988281 L 210.207031 186.160156 C 210.21875 184.941406 210.21875 183.722656 210.199219 182.503906 L 210.1875 181.589844 L 210.164062 180.675781 L 210.113281 178.847656 C 210.082031 177.628906 210.035156 176.410156 210.007812 175.1875 C 209.980469 173.96875 209.964844 172.75 209.953125 171.53125 L 209.949219 171.074219 L 209.945312 170.847656 C 209.945312 170.828125 209.945312 170.808594 209.945312 170.789062 L 209.949219 170.71875 C 209.953125 170.675781 209.957031 170.628906 209.96875 170.585938 C 210.039062 170.226562 210.34375 169.890625 210.785156 169.644531 C 211.007812 169.523438 211.265625 169.421875 211.546875 169.351562 C 211.828125 169.28125 212.128906 169.242188 212.433594 169.230469 L 212.546875 169.226562 C 212.585938 169.226562 212.613281 169.226562 212.644531 169.226562 L 212.839844 169.226562 L 213.222656 169.222656 L 213.992188 169.222656 C 215.019531 169.214844 216.046875 169.214844 217.070312 169.214844 L 220.152344 169.214844 C 222.203125 169.222656 224.253906 169.226562 226.308594 169.238281 L 229.386719 169.257812 L 230.925781 169.269531 L 231.695312 169.277344 C 231.828125 169.277344 231.945312 169.277344 232.085938 169.28125 C 232.160156 169.285156 232.234375 169.285156 232.308594 169.292969 L 232.523438 169.3125 C 233.101562 169.386719 233.628906 169.578125 233.988281 169.851562 C 234.351562 170.121094 234.464844 172.640625 234.464844 172.640625 C 234.445312 173.25 234.414062 173.859375 234.386719 174.46875 C 234.359375 175.078125 234.523438 179.527344 234.574219 181.144531 C 234.574219 181.144531 234.414062 189.226562 234.386719 190.84375 C 234.375 191.652344 234.558594 197.308594 234.585938 198.117188 C 234.613281 198.925781 234.628906 199.734375 234.640625 200.542969 L 234.683594 202.964844 L 234.691406 203.574219 Z M 234.691406 203.722656 "/></g><path style=" stroke:none;fill-rule:nonzero;fill:#9e968c;fill-opacity:1;" d="M 231.148438 174.140625 C 231.175781 174.140625 231.210938 174.140625 231.242188 174.140625 C 231.273438 174.144531 231.304688 174.148438 231.339844 174.152344 C 231.371094 174.15625 231.402344 174.160156 231.429688 174.167969 C 231.554688 174.195312 231.667969 174.242188 231.757812 174.300781 C 231.847656 174.359375 231.917969 174.433594 231.957031 174.511719 C 231.96875 174.53125 231.976562 174.550781 231.984375 174.570312 C 231.988281 174.59375 231.992188 174.613281 231.996094 174.632812 L 232 174.664062 C 232 174.675781 232 174.6875 232 174.695312 L 232 174.746094 L 231.996094 174.953125 C 231.996094 175.09375 231.992188 175.234375 231.988281 175.371094 L 231.980469 175.789062 L 231.964844 176.207031 C 231.945312 176.761719 231.898438 178.296875 231.90625 178.503906 L 231.914062 178.660156 C 231.917969 178.71875 231.902344 178.773438 231.875 178.828125 C 231.847656 178.882812 231.804688 178.933594 231.75 178.980469 C 231.695312 179.023438 231.628906 179.0625 231.550781 179.09375 C 231.476562 179.121094 231.390625 179.144531 231.304688 179.15625 L 231.238281 179.164062 L 231.167969 179.167969 C 231.125 179.167969 231.085938 179.167969 231.046875 179.167969 L 230.558594 179.175781 L 228.605469 179.191406 L 227.628906 179.191406 C 226.976562 179.195312 226.328125 179.191406 225.675781 179.1875 L 222.746094 179.152344 L 221.769531 179.144531 C 221.121094 179.144531 220.46875 179.144531 219.820312 179.148438 L 219.332031 179.148438 L 218.84375 179.152344 L 217.867188 179.164062 C 217.214844 179.171875 216.5625 179.179688 215.914062 179.1875 C 215.261719 179.191406 214.613281 179.195312 213.960938 179.195312 L 213.714844 179.199219 L 213.59375 179.199219 C 213.585938 179.199219 213.574219 179.199219 213.5625 179.199219 L 213.527344 179.199219 C 213.503906 179.195312 213.480469 179.195312 213.457031 179.195312 C 213.265625 179.179688 213.085938 179.117188 212.953125 179.027344 C 212.886719 178.980469 212.835938 178.929688 212.796875 178.871094 C 212.757812 178.8125 212.738281 178.753906 212.730469 178.691406 L 212.730469 178.667969 C 212.730469 178.660156 212.730469 178.652344 212.730469 178.648438 L 212.730469 178.527344 L 212.726562 178.371094 C 212.722656 178.160156 212.722656 177.953125 212.722656 177.742188 L 212.722656 177.113281 C 212.726562 176.691406 212.730469 176.273438 212.738281 175.855469 L 212.746094 175.222656 L 212.757812 174.753906 C 212.757812 174.726562 212.757812 174.703125 212.757812 174.671875 C 212.761719 174.65625 212.761719 174.640625 212.765625 174.628906 L 212.777344 174.582031 C 212.816406 174.464844 212.917969 174.355469 213.0625 174.285156 C 213.207031 174.210938 213.394531 174.171875 213.574219 174.175781 L 214.550781 174.1875 C 214.878906 174.191406 215.203125 174.195312 215.527344 174.203125 C 215.851562 174.207031 216.179688 174.214844 216.503906 174.222656 C 217.367188 174.1875 218.230469 174.175781 219.09375 174.164062 L 219.742188 174.15625 L 220.386719 174.15625 C 220.820312 174.152344 221.25 174.152344 221.683594 174.160156 C 222.542969 174.167969 223.40625 174.195312 224.269531 174.203125 C 224.703125 174.203125 225.132812 174.203125 225.566406 174.199219 L 225.890625 174.199219 L 226.210938 174.191406 L 226.859375 174.183594 C 227.292969 174.175781 227.722656 174.167969 228.152344 174.160156 C 228.585938 174.15625 229.015625 174.152344 229.449219 174.148438 L 230.742188 174.140625 Z M 231.148438 174.140625 "/><path style=" stroke:none;fill-rule:nonzero;fill:#a6a6a6;fill-opacity:1;" d="M 215.324219 186.386719 L 214.457031 186.386719 C 213.644531 186.386719 212.984375 185.726562 212.984375 184.914062 L 212.984375 184.046875 C 212.984375 183.234375 213.644531 182.574219 214.457031 182.574219 L 215.324219 182.574219 C 216.136719 182.574219 216.796875 183.234375 216.796875 184.046875 L 216.796875 184.914062 C 216.796875 185.726562 216.136719 186.386719 215.324219 186.386719 Z M 221.765625 184.914062 L 221.765625 184.046875 C 221.765625 183.234375 221.105469 182.574219 220.289062 182.574219 L 219.425781 182.574219 C 218.609375 182.574219 217.949219 183.234375 217.949219 184.046875 L 217.949219 184.914062 C 217.949219 185.726562 218.609375 186.386719 219.425781 186.386719 L 220.289062 186.386719 C 221.105469 186.386719 221.765625 185.726562 221.765625 184.914062 Z M 226.730469 184.914062 L 226.730469 184.046875 C 226.730469 183.234375 226.070312 182.574219 225.257812 182.574219 L 224.390625 182.574219 C 223.578125 182.574219 222.917969 183.234375 222.917969 184.046875 L 222.917969 184.914062 C 222.917969 185.726562 223.578125 186.386719 224.390625 186.386719 L 225.257812 186.386719 C 226.070312 186.386719 226.730469 185.726562 226.730469 184.914062 Z M 216.796875 189.882812 L 216.796875 189.015625 C 216.796875 188.199219 216.136719 187.542969 215.324219 187.542969 L 214.457031 187.542969 C 213.644531 187.542969 212.984375 188.199219 212.984375 189.015625 L 212.984375 189.882812 C 212.984375 190.695312 213.644531 191.355469 214.457031 191.355469 L 215.324219 191.355469 C 216.136719 191.355469 216.796875 190.695312 216.796875 189.882812 Z M 221.765625 189.882812 L 221.765625 189.015625 C 221.765625 188.199219 221.105469 187.542969 220.289062 187.542969 L 219.425781 187.542969 C 218.609375 187.542969 217.949219 188.199219 217.949219 189.015625 L 217.949219 189.882812 C 217.949219 190.695312 218.609375 191.355469 219.425781 191.355469 L 220.289062 191.355469 C 221.105469 191.355469 221.765625 190.695312 221.765625 189.882812 Z M 226.730469 189.882812 L 226.730469 189.015625 C 226.730469 188.199219 226.070312 187.542969 225.257812 187.542969 L 224.390625 187.542969 C 223.578125 187.542969 222.917969 188.199219 222.917969 189.015625 L 222.917969 189.882812 C 222.917969 190.695312 223.578125 191.355469 224.390625 191.355469 L 225.257812 191.355469 C 226.070312 191.355469 226.730469 190.695312 226.730469 189.882812 Z M 216.796875 194.847656 L 216.796875 193.980469 C 216.796875 193.167969 216.136719 192.507812 215.324219 192.507812 L 214.457031 192.507812 C 213.644531 192.507812 212.984375 193.167969 212.984375 193.980469 L 212.984375 194.847656 C 212.984375 195.660156 213.644531 196.320312 214.457031 196.320312 L 215.324219 196.320312 C 216.136719 196.320312 216.796875 195.660156 216.796875 194.847656 Z M 221.765625 194.847656 L 221.765625 193.980469 C 221.765625 193.167969 221.105469 192.507812 220.289062 192.507812 L 219.425781 192.507812 C 218.609375 192.507812 217.949219 193.167969 217.949219 193.980469 L 217.949219 194.847656 C 217.949219 195.660156 218.609375 196.320312 219.425781 196.320312 L 220.289062 196.320312 C 221.105469 196.320312 221.765625 195.660156 221.765625 194.847656 Z M 226.730469 194.847656 L 226.730469 193.980469 C 226.730469 193.167969 226.070312 192.507812 225.257812 192.507812 L 224.390625 192.507812 C 223.578125 192.507812 222.917969 193.167969 222.917969 193.980469 L 222.917969 194.847656 C 222.917969 195.660156 223.578125 196.320312 224.390625 196.320312 L 225.257812 196.320312 C 226.070312 196.320312 226.730469 195.660156 226.730469 194.847656 Z M 216.796875 199.316406 L 216.796875 198.453125 C 216.796875 197.636719 216.136719 196.976562 215.324219 196.976562 L 214.457031 196.976562 C 213.644531 196.976562 212.984375 197.636719 212.984375 198.453125 L 212.984375 199.316406 C 212.984375 200.132812 213.644531 200.792969 214.457031 200.792969 L 215.324219 200.792969 C 216.136719 200.792969 216.796875 200.132812 216.796875 199.316406 Z M 221.765625 199.316406 L 221.765625 198.453125 C 221.765625 197.636719 221.105469 196.976562 220.289062 196.976562 L 219.425781 196.976562 C 218.609375 196.976562 217.949219 197.636719 217.949219 198.453125 L 217.949219 199.316406 C 217.949219 200.132812 218.609375 200.792969 219.425781 200.792969 L 220.289062 200.792969 C 221.105469 200.792969 221.765625 200.132812 221.765625 199.316406 Z M 221.765625 199.316406 "/><path style=" stroke:none;fill-rule:nonzero;fill:#ffffff;fill-opacity:1;" d="M 230.222656 186.386719 L 229.359375 186.386719 C 228.542969 186.386719 227.882812 185.726562 227.882812 184.914062 L 227.882812 184.046875 C 227.882812 183.234375 228.542969 182.574219 229.359375 182.574219 L 230.222656 182.574219 C 231.039062 182.574219 231.699219 183.234375 231.699219 184.046875 L 231.699219 184.914062 C 231.699219 185.726562 231.039062 186.386719 230.222656 186.386719 Z M 231.699219 189.882812 L 231.699219 189.015625 C 231.699219 188.199219 231.039062 187.542969 230.222656 187.542969 L 229.359375 187.542969 C 228.542969 187.542969 227.882812 188.199219 227.882812 189.015625 L 227.882812 189.882812 C 227.882812 190.695312 228.542969 191.355469 229.359375 191.355469 L 230.222656 191.355469 C 231.039062 191.355469 231.699219 190.695312 231.699219 189.882812 Z M 231.699219 194.847656 L 231.699219 193.980469 C 231.699219 193.167969 231.039062 192.507812 230.222656 192.507812 L 229.359375 192.507812 C 228.542969 192.507812 227.882812 193.167969 227.882812 193.980469 L 227.882812 194.847656 C 227.882812 195.660156 228.542969 196.320312 229.359375 196.320312 L 230.222656 196.320312 C 231.039062 196.320312 231.699219 195.660156 231.699219 194.847656 Z M 226.730469 199.316406 L 226.730469 198.453125 C 226.730469 197.636719 226.070312 196.976562 225.257812 196.976562 L 224.390625 196.976562 C 223.578125 196.976562 222.917969 197.636719 222.917969 198.453125 L 222.917969 199.316406 C 222.917969 200.132812 223.578125 200.792969 224.390625 200.792969 L 225.257812 200.792969 C 226.070312 200.792969 226.730469 200.132812 226.730469 199.316406 Z M 231.699219 199.316406 L 231.699219 198.453125 C 231.699219 197.636719 231.039062 196.976562 230.222656 196.976562 L 229.359375 196.976562 C 228.542969 196.976562 227.882812 197.636719 227.882812 198.453125 L 227.882812 199.316406 C 227.882812 200.132812 228.542969 200.792969 229.359375 200.792969 L 230.222656 200.792969 C 231.039062 200.792969 231.699219 200.132812 231.699219 199.316406 Z M 214.453125 202.027344 C 213.046875 201.777344 210.855469 201.441406 211.398438 202.929688 C 211.726562 203.820312 214.300781 203.769531 215.449219 203.753906 C 216.460938 203.738281 217.984375 203.652344 218.074219 203.101562 C 218.175781 202.488281 215.816406 202.269531 214.453125 202.027344 Z M 211.390625 171.355469 C 210.890625 172.117188 211.027344 175.5625 211.65625 175.417969 C 212.507812 175.222656 212.609375 173.015625 213.269531 172.25 C 214.0625 171.320312 217.359375 171.703125 217.699219 171.101562 C 218.234375 170.152344 212.3125 169.945312 211.390625 171.355469 Z M 219.445312 171.683594 C 219.808594 171.703125 220.347656 171.417969 220.339844 171.070312 C 220.332031 170.742188 220.058594 170.359375 219.484375 170.339844 C 219.050781 170.324219 218.609375 170.699219 218.609375 170.972656 C 218.613281 171.34375 218.988281 171.675781 219.445312 171.683594 Z M 219.445312 171.683594 "/><path style=" stroke:none;fill-rule:nonzero;fill:#59524b;fill-opacity:1;" d="M 214.652344 185.378906 C 214.632812 184.773438 214.613281 184.171875 214.589844 183.570312 C 214.582031 183.28125 215.027344 183.28125 215.039062 183.570312 C 215.058594 184.171875 215.082031 184.773438 215.101562 185.378906 C 215.109375 185.667969 214.664062 185.664062 214.652344 185.378906 Z M 220.746094 184.902344 C 220.574219 184.839844 220.402344 184.804688 220.230469 184.792969 C 220.488281 184.457031 220.695312 184.039062 220.496094 183.695312 C 220.359375 183.460938 220.074219 183.398438 219.828125 183.480469 C 219.542969 183.574219 219.394531 183.847656 219.285156 184.105469 C 219.171875 184.367188 219.558594 184.59375 219.671875 184.332031 C 219.726562 184.199219 219.785156 184.03125 219.902344 183.945312 C 220.105469 183.800781 220.144531 183.992188 220.085938 184.148438 C 219.976562 184.433594 219.746094 184.6875 219.53125 184.894531 C 219.359375 185.054688 219.539062 185.316406 219.746094 185.269531 C 220.050781 185.199219 220.335938 185.226562 220.625 185.335938 C 220.894531 185.433594 221.011719 185.003906 220.746094 184.902344 Z M 224.527344 184.222656 C 224.585938 184.144531 224.914062 183.878906 225.019531 184.011719 C 225.097656 184.109375 224.863281 184.296875 224.804688 184.347656 C 224.675781 184.46875 224.769531 184.753906 224.964844 184.730469 C 225.078125 184.714844 225.257812 184.667969 225.304688 184.808594 C 225.339844 184.914062 225.257812 185.011719 225.171875 185.0625 C 224.945312 185.195312 224.652344 185.105469 224.417969 185.042969 C 224.140625 184.972656 224.023438 185.402344 224.300781 185.476562 C 224.777344 185.597656 225.4375 185.667969 225.695312 185.132812 C 225.792969 184.933594 225.773438 184.683594 225.652344 184.503906 C 225.585938 184.40625 225.496094 184.34375 225.398438 184.308594 C 225.507812 184.089844 225.527344 183.839844 225.296875 183.65625 C 224.921875 183.351562 224.382812 183.683594 224.140625 183.996094 C 223.964844 184.222656 224.351562 184.445312 224.527344 184.222656 Z M 215.550781 189.726562 C 215.460938 189.726562 215.371094 189.726562 215.28125 189.726562 C 215.292969 189.902344 215.300781 190.082031 215.3125 190.257812 C 215.328125 190.546875 214.882812 190.542969 214.867188 190.257812 C 214.855469 190.082031 214.84375 189.902344 214.835938 189.722656 C 214.59375 189.722656 214.355469 189.722656 214.117188 189.71875 C 213.945312 189.71875 213.835938 189.53125 213.921875 189.382812 C 214.085938 189.101562 214.277344 188.835938 214.5 188.589844 C 214.644531 188.429688 214.839844 188.21875 215.066406 188.378906 C 215.292969 188.535156 215.234375 188.964844 215.25 189.195312 C 215.25 189.222656 215.253906 189.25 215.253906 189.277344 C 215.351562 189.277344 215.453125 189.277344 215.550781 189.28125 C 215.839844 189.28125 215.839844 189.726562 215.550781 189.726562 Z M 214.519531 189.277344 C 214.617188 189.277344 214.710938 189.277344 214.808594 189.277344 C 214.800781 189.1875 214.796875 189.09375 214.792969 189.003906 C 214.789062 188.976562 214.789062 188.953125 214.785156 188.925781 C 214.726562 188.996094 214.675781 189.070312 214.632812 189.121094 C 214.59375 189.171875 214.558594 189.222656 214.519531 189.277344 Z M 220.28125 189.222656 C 220.195312 189.207031 220.101562 189.195312 220.011719 189.199219 C 219.972656 189.199219 219.863281 189.230469 219.789062 189.242188 C 219.84375 189.199219 219.808594 189.011719 219.808594 188.964844 C 219.808594 188.929688 219.808594 188.894531 219.808594 188.859375 C 220 188.875 220.195312 188.882812 220.390625 188.875 C 220.675781 188.863281 220.679688 188.414062 220.390625 188.425781 C 220.140625 188.4375 219.890625 188.429688 219.640625 188.394531 C 219.5 188.371094 219.355469 188.449219 219.359375 188.609375 C 219.359375 188.773438 219.359375 188.9375 219.363281 189.097656 C 219.363281 189.230469 219.34375 189.398438 219.410156 189.519531 C 219.523438 189.734375 219.765625 189.675781 219.957031 189.652344 C 220.195312 189.625 220.636719 189.789062 220.320312 190.050781 C 220.070312 190.261719 219.699219 190.019531 219.476562 189.875 C 219.234375 189.714844 219.011719 190.101562 219.25 190.261719 C 219.558594 190.464844 219.9375 190.652344 220.3125 190.546875 C 220.617188 190.464844 220.878906 190.179688 220.878906 189.859375 C 220.878906 189.519531 220.589844 189.289062 220.28125 189.222656 Z M 224 189.707031 C 223.953125 189.136719 224.265625 188.578125 224.753906 188.292969 C 225.003906 188.148438 225.230469 188.535156 224.980469 188.679688 C 224.640625 188.878906 224.3125 189.425781 224.453125 189.839844 C 224.617188 189.429688 225.117188 189.179688 225.546875 189.433594 C 226.109375 189.765625 225.613281 190.488281 225.15625 190.621094 C 224.542969 190.796875 224.046875 190.289062 224 189.707031 Z M 224.847656 190.195312 C 225.039062 190.226562 225.246094 190.152344 225.316406 189.957031 C 225.390625 189.746094 225.125 189.753906 224.996094 189.832031 C 224.867188 189.910156 224.835938 190.054688 224.847656 190.195312 Z M 215.234375 193.488281 C 214.933594 193.472656 214.632812 193.460938 214.335938 193.449219 C 214.046875 193.433594 214.046875 193.882812 214.335938 193.894531 C 214.507812 193.902344 214.683594 193.910156 214.855469 193.917969 C 214.914062 193.921875 215.074219 193.902344 215.191406 193.90625 C 215.160156 194.085938 215.089844 194.277344 215.054688 194.4375 C 215 194.679688 214.949219 194.917969 214.894531 195.15625 C 214.832031 195.4375 215.265625 195.558594 215.324219 195.277344 C 215.390625 194.988281 215.453125 194.699219 215.515625 194.414062 C 215.546875 194.269531 215.582031 194.125 215.613281 193.980469 C 215.632812 193.886719 215.671875 193.777344 215.644531 193.679688 C 215.585938 193.492188 215.390625 193.496094 215.234375 193.488281 Z M 219.082031 194.511719 C 219.144531 194.355469 219.25 194.234375 219.378906 194.148438 C 219.230469 194 219.128906 193.804688 219.140625 193.589844 C 219.183594 192.964844 219.953125 192.890625 220.320312 193.277344 C 220.335938 193.292969 220.34375 193.304688 220.355469 193.324219 C 220.542969 193.546875 220.539062 193.878906 220.382812 194.125 C 220.464844 194.164062 220.535156 194.222656 220.589844 194.304688 C 220.9375 194.816406 220.414062 195.332031 219.914062 195.398438 C 219.394531 195.464844 218.863281 195.070312 219.082031 194.511719 Z M 219.953125 194.417969 C 219.730469 194.476562 219.40625 194.539062 219.480469 194.804688 C 219.5625 195.101562 220.15625 194.953125 220.234375 194.71875 C 220.285156 194.570312 220.132812 194.484375 219.953125 194.417969 Z M 219.894531 193.945312 C 219.902344 193.953125 219.914062 193.957031 219.925781 193.957031 C 219.957031 193.941406 219.988281 193.914062 220.011719 193.878906 C 220.046875 193.820312 220.09375 193.671875 220.03125 193.613281 C 220.019531 193.609375 220.011719 193.601562 220.003906 193.59375 C 219.902344 193.488281 219.664062 193.382812 219.597656 193.589844 C 219.539062 193.765625 219.765625 193.890625 219.894531 193.945312 Z M 225.085938 194.378906 C 224.726562 194.484375 224.339844 194.445312 224.125 194.082031 C 223.839844 193.601562 224.304688 193.105469 224.796875 193.113281 C 225.304688 193.125 225.683594 193.554688 225.632812 194.054688 C 225.578125 194.578125 225.1875 195.183594 224.707031 195.410156 C 224.445312 195.535156 224.21875 195.148438 224.480469 195.023438 C 224.664062 194.9375 224.933594 194.667969 225.085938 194.378906 Z M 225.1875 193.855469 C 225.164062 193.769531 225.113281 193.695312 225.027344 193.640625 C 224.871094 193.53125 224.351562 193.546875 224.511719 193.855469 C 224.640625 194.105469 224.976562 193.972656 225.1875 193.855469 Z M 220.738281 198.871094 C 220.75 199.328125 220.539062 199.972656 219.980469 199.960938 C 219.414062 199.949219 219.046875 199.277344 219.050781 198.773438 C 219.054688 198.277344 219.375 197.734375 219.910156 197.71875 C 219.941406 197.71875 219.96875 197.726562 219.992188 197.734375 C 220.539062 197.804688 220.726562 198.367188 220.738281 198.871094 Z M 219.917969 198.171875 C 219.910156 198.171875 219.902344 198.171875 219.894531 198.167969 C 219.625 198.191406 219.5 198.539062 219.496094 198.773438 C 219.496094 199.015625 219.675781 199.511719 219.980469 199.515625 C 220.460938 199.515625 220.402344 198.191406 219.917969 198.171875 Z M 225.648438 198.1875 C 225.144531 198.210938 224.636719 198.226562 224.132812 198.226562 C 223.84375 198.230469 223.84375 198.675781 224.132812 198.675781 C 224.636719 198.671875 225.144531 198.65625 225.648438 198.632812 C 225.933594 198.621094 225.933594 198.171875 225.648438 198.1875 Z M 225.648438 199.089844 C 225.144531 199.046875 224.648438 199.070312 224.152344 199.148438 C 223.871094 199.191406 223.992188 199.621094 224.273438 199.578125 C 224.726562 199.507812 225.1875 199.496094 225.648438 199.535156 C 225.933594 199.5625 225.929688 199.113281 225.648438 199.089844 Z M 229.011719 184.671875 C 229.199219 184.671875 229.386719 184.671875 229.574219 184.671875 C 229.597656 184.867188 229.621094 185.058594 229.640625 185.25 C 229.675781 185.535156 230.121094 185.535156 230.089844 185.25 C 230.066406 185.058594 230.042969 184.867188 230.023438 184.675781 C 230.273438 184.679688 230.527344 184.683594 230.78125 184.6875 C 231.070312 184.695312 231.070312 184.25 230.78125 184.242188 C 230.511719 184.234375 230.242188 184.230469 229.96875 184.226562 C 229.945312 184.007812 229.917969 183.789062 229.894531 183.570312 C 229.863281 183.289062 229.414062 183.285156 229.449219 183.570312 C 229.472656 183.789062 229.496094 184.007812 229.523438 184.226562 C 229.351562 184.226562 229.183594 184.226562 229.011719 184.226562 C 228.726562 184.226562 228.726562 184.675781 229.011719 184.671875 Z M 230.652344 189.640625 C 230.941406 189.632812 230.941406 189.1875 230.652344 189.195312 C 230.152344 189.207031 229.65625 189.183594 229.160156 189.105469 C 228.878906 189.0625 228.757812 189.496094 229.039062 189.539062 C 229.574219 189.621094 230.113281 189.65625 230.652344 189.640625 Z M 229.507812 195.421875 C 229.648438 195.199219 229.796875 194.976562 229.945312 194.757812 C 230.152344 194.886719 230.359375 195.015625 230.566406 195.148438 C 230.8125 195.300781 231.039062 194.914062 230.792969 194.761719 C 230.59375 194.636719 230.398438 194.515625 230.199219 194.390625 C 230.359375 194.160156 230.523438 193.929688 230.691406 193.707031 C 230.867188 193.476562 230.476562 193.253906 230.308594 193.480469 C 230.140625 193.703125 229.980469 193.925781 229.820312 194.15625 C 229.621094 194.03125 229.425781 193.90625 229.226562 193.785156 C 228.980469 193.632812 228.757812 194.019531 229 194.171875 C 229.1875 194.289062 229.378906 194.40625 229.566406 194.523438 C 229.414062 194.746094 229.265625 194.96875 229.121094 195.199219 C 228.964844 195.441406 229.351562 195.667969 229.507812 195.421875 Z M 230.738281 198.585938 C 230.164062 198.566406 229.589844 198.53125 229.015625 198.472656 C 228.730469 198.445312 228.730469 198.894531 229.015625 198.921875 C 229.589844 198.976562 230.164062 199.015625 230.738281 199.035156 C 231.027344 199.042969 231.023438 198.597656 230.738281 198.585938 Z M 228.335938 176.515625 C 228.378906 175.894531 228.78125 175.203125 229.46875 175.199219 C 229.496094 175.199219 229.515625 175.203125 229.535156 175.207031 C 230.324219 175.265625 230.558594 176.125 230.558594 176.800781 C 230.558594 177.414062 230.265625 178.292969 229.496094 178.210938 C 228.746094 178.132812 228.285156 177.195312 228.335938 176.515625 Z M 229.480469 177.757812 C 230.003906 177.886719 230.117188 177.109375 230.113281 176.757812 C 230.105469 176.347656 230.007812 175.664062 229.476562 175.652344 C 229.464844 175.652344 229.449219 175.648438 229.4375 175.648438 C 229.019531 175.675781 228.800781 176.183594 228.78125 176.554688 C 228.753906 176.988281 229.015625 177.640625 229.480469 177.757812 Z M 229.480469 177.757812 "/><g clip-rule="nonzero" clip-path="url(#584e9c8f50)"><path style=" stroke:none;fill-rule:nonzero;fill:#000000;fill-opacity:1;" d="M 230.316406 237.195312 L 144.96875 237.195312 C 143.285156 237.195312 141.785156 238.320312 141.316406 239.9375 L 140.710938 242.019531 L 234.574219 242.019531 L 233.96875 239.9375 C 233.5 238.320312 231.996094 237.195312 230.316406 237.195312 Z M 230.316406 237.195312 "/></g><path style=" stroke:none;fill-rule:nonzero;fill:#000000;fill-opacity:1;" d="M 184.78125 149.863281 L 190.503906 149.863281 L 190.503906 152.859375 L 184.78125 152.859375 Z M 184.78125 149.863281 "/><g clip-rule="nonzero" clip-path="url(#4b2b19fce4)"><path style=" stroke:none;fill-rule:nonzero;fill:#000000;fill-opacity:1;" d="M 191 148.078125 C 192.421875 146.515625 193.269531 144.097656 193.269531 141.507812 C 193.269531 136.964844 190.746094 133.269531 187.640625 133.269531 C 184.539062 133.269531 182.015625 136.964844 182.015625 141.507812 C 182.015625 144.097656 182.863281 146.515625 184.285156 148.078125 Z M 191 148.078125 "/></g><path style=" stroke:none;fill-rule:nonzero;fill:#000000;fill-opacity:1;" d="M 184.78125 154.640625 L 190.503906 154.640625 L 190.503906 223.59375 L 184.78125 223.59375 Z M 184.78125 154.640625 "/><path style=" stroke:none;fill-rule:nonzero;fill:#000000;fill-opacity:1;" d="M 163.988281 230.609375 C 162.335938 230.609375 160.859375 231.71875 160.394531 233.304688 L 159.78125 235.410156 L 215.5 235.410156 L 214.886719 233.304688 C 214.425781 231.71875 212.945312 230.609375 211.292969 230.609375 Z M 163.988281 230.609375 "/><path style=" stroke:none;fill-rule:nonzero;fill:#000000;fill-opacity:1;" d="M 183.886719 225.378906 L 173.863281 225.378906 L 173.863281 228.828125 L 201.417969 228.828125 L 201.417969 225.378906 Z M 183.886719 225.378906 "/><g clip-rule="nonzero" clip-path="url(#bb0ae36272)"><path style=" stroke:none;fill-rule:nonzero;fill:#000000;fill-opacity:1;" d="M 171.335938 199.921875 L 166.992188 199.921875 L 157.519531 162.851562 C 158.300781 162.988281 159.082031 163.070312 159.851562 163.070312 C 163.472656 163.070312 166.261719 161.988281 168.957031 160.945312 C 171.101562 160.113281 173.125 159.332031 175.28125 159.261719 C 178.457031 159.152344 181.339844 160.5625 182.996094 161.578125 L 182.996094 154.363281 C 181.675781 153.914062 177.695312 152.730469 174.136719 153.339844 C 172.285156 153.65625 170.488281 154.621094 168.582031 155.644531 C 165.929688 157.070312 163.183594 158.542969 159.851562 158.542969 C 156.003906 158.542969 153.871094 157.199219 152.824219 156.21875 C 152.460938 156.625 152.039062 156.988281 151.554688 157.265625 C 151.128906 157.507812 150.582031 157.363281 150.335938 156.933594 C 150.09375 156.507812 150.242188 155.964844 150.667969 155.71875 C 151.695312 155.128906 152.335938 154.027344 152.335938 152.847656 C 152.335938 151.023438 150.851562 149.539062 149.027344 149.539062 C 147.207031 149.539062 145.722656 151.023438 145.722656 152.847656 C 145.722656 154.597656 146.742188 156.4375 148.347656 158.070312 L 137.660156 199.921875 L 133.316406 199.921875 C 134.011719 206.410156 142.273438 211.550781 152.324219 211.550781 C 162.375 211.550781 170.636719 206.410156 171.335938 199.921875 Z M 165.140625 199.921875 L 153.214844 199.921875 L 153.214844 161.449219 C 153.972656 161.808594 154.75 162.113281 155.546875 162.359375 Z M 151.433594 160.496094 L 151.433594 199.921875 L 139.507812 199.921875 L 149.859375 159.398438 C 150.359375 159.785156 150.878906 160.15625 151.433594 160.496094 Z M 151.433594 160.496094 "/></g><path style=" stroke:none;fill-rule:nonzero;fill:#000000;fill-opacity:1;" d="M 237.625 199.921875 L 226.933594 158.070312 C 228.542969 156.4375 229.5625 154.597656 229.5625 152.847656 C 229.5625 151.023438 228.078125 149.539062 226.253906 149.539062 C 224.429688 149.539062 222.949219 151.023438 222.949219 152.847656 C 222.949219 154.03125 223.585938 155.128906 224.613281 155.71875 C 225.042969 155.964844 225.191406 156.507812 224.945312 156.9375 C 224.699219 157.363281 224.15625 157.511719 223.730469 157.265625 C 223.242188 156.988281 222.820312 156.628906 222.457031 156.21875 C 221.410156 157.199219 219.277344 158.542969 215.429688 158.542969 C 212.097656 158.542969 209.355469 157.070312 206.699219 155.644531 C 204.796875 154.621094 203 153.65625 201.144531 153.339844 C 197.585938 152.730469 193.609375 153.914062 192.285156 154.363281 L 192.285156 161.582031 C 193.941406 160.566406 196.824219 159.164062 200 159.261719 C 202.15625 159.332031 204.179688 160.113281 206.324219 160.945312 C 209.019531 161.988281 211.808594 163.070312 215.429688 163.070312 C 216.199219 163.070312 216.980469 162.988281 217.761719 162.851562 L 208.292969 199.921875 L 203.949219 199.921875 C 204.648438 206.410156 212.90625 211.550781 222.957031 211.550781 C 233.011719 211.550781 241.269531 206.410156 241.96875 199.921875 Z M 225.421875 159.398438 L 235.773438 199.921875 L 223.851562 199.921875 L 223.851562 160.496094 C 224.402344 160.15625 224.925781 159.785156 225.421875 159.398438 Z M 222.066406 161.449219 L 222.066406 199.921875 L 210.144531 199.921875 L 219.738281 162.363281 C 220.53125 162.113281 221.3125 161.808594 222.066406 161.449219 Z M 222.066406 161.449219 "/></g></svg>